<svg height="512" viewBox="0 0 32 32" width="512" xmlns="http://www.w3.org/2000/svg"><g id="regulation"><path d="m29.9629 26.0726-6.9022-5.84 2.8284-2.8284a1 1 0 0 0 1.4142 0l1.4142-1.4142a1 1 0 0 0 0-1.4142l-7.0711-7.0715a1 1 0 0 0 -1.4142 0l-1.4142 1.4142a1 1 0 0 0 0 1.4143l-8.4852 8.4852a1 1 0 0 0 -1.4143 0l-1.4142 1.4142a1 1 0 0 0 0 1.4142l7.0711 7.0711a1 1 0 0 0 1.4142 0l1.4142-1.4142a1 1 0 0 0 0-1.4142l2.8284-2.8284 5.84 6.9022a2.76 2.76 0 1 0 3.89-3.89z"/><path d="m19 0h-16a3.0088 3.0088 0 0 0 -3 3v22a3.0088 3.0088 0 0 0 3 3h8.03l-4.94-4.94a2.9936 2.9936 0 0 1 0-4.24l.8142-.82h-1.9042a1 1 0 0 1 0-2h2a1 1 0 0 1 1 1l-.0007.0035a3.0664 3.0664 0 0 1 1.7907-.4735l2.6276-2.6276a.9853.9853 0 0 1 -.4176.0976h-7a1 1 0 0 1 0-2h7a1 1 0 0 1 1 1 .9847.9847 0 0 1 -.0977.4177l3.6277-3.6277a3.05 3.05 0 0 1 .87-2.29l1.42-1.41a3.0051 3.0051 0 0 1 3.18-.69v-2.4a3.0088 3.0088 0 0 0 -3-3zm-4 10h-10a1 1 0 0 1 0-2h10a1 1 0 0 1 0 2zm2-4h-12a1 1 0 0 1 0-2h12a1 1 0 0 1 0 2z"/></g></svg>