<svg id="Layer_1" enable-background="new 0 0 512 512" viewBox="0 0 512 512" xmlns="http://www.w3.org/2000/svg"><path d="m269.046 283.385c12.773 7.38 26.555 12.466 40.974 15.142h20.278c4.36 0 8.299.676 11.825 1.878 43.135-2.891 81.65-26.817 103.251-64.261 17.251-29.86 21.834-64.645 12.907-97.953-8.926-33.304-30.288-61.138-60.15-78.377-61.627-35.573-140.727-14.379-176.329 47.248-13.177 22.841-18.961 48.623-16.854 74.783 10.073 6.3 18.455 15.094 24.377 25.815 8.369 15.153 10.883 32.416 7.277 49.106 9.293 10.586 20.178 19.545 32.444 26.619zm19.86-82.185h14.786v7.393c0 9.77 7.949 17.718 17.718 17.718h18.466c13.037 0 23.642-10.607 23.642-23.643 0-13.053-10.606-23.673-23.642-23.673-12.607 0-50.97 0-50.97-38.429 0-20.824 16.627-37.823 37.292-38.429v-29.33h14.786v29.301h4.818c17.922 0 32.502 14.58 32.502 32.502v7.393h-14.786v-7.393c0-9.769-7.947-17.717-17.717-17.717h-18.465c-13.038 0-23.645 10.619-23.645 23.672 0 17.015 10.145 23.643 36.184 23.643 21.19 0 38.428 17.253 38.428 38.459 0 20.818-16.642 37.811-37.321 38.401v29.358h-14.786v-29.33h-4.788c-17.922 0-32.503-14.581-32.503-32.503v-7.393zm215.815-29.599c0 84.384-60.146 154.721-141.909 168.64.602-2.653.917-5.372.917-8.088 0-6.598-1.798-13.224-5.317-18.833 41.775-7.289 78.279-32.536 99.767-69.783 19.225-33.278 24.333-72.049 14.383-109.173-9.948-37.117-33.756-68.14-67.039-87.353-68.683-39.649-156.843-16.028-196.524 52.658-13.289 23.036-19.835 48.753-19.225 75.036-.915-.304-1.833-.602-2.765-.87l-11.133-3.202c-3.924-1.136-8.017 1.135-9.147 5.056l-3.469 12.037c-.501-5.349-.771-10.729-.771-16.125-.001-94.346 76.755-171.101 171.101-171.101 94.362 0 171.131 76.755 171.131 171.101zm-220.633 179.391v14.786h46.209c12.88 0 18.646 9.462 18.646 18.84s-5.766 18.84-18.646 18.84h-12.929-33.281v14.786h33.281c12.88 0 18.645 9.462 18.645 18.84 0 4.997-1.698 9.787-4.66 13.144-3.334 3.78-8.039 5.696-13.984 5.696h-5.687-27.593v14.786h27.593c12.881 0 18.646 9.462 18.646 18.84s-5.765 18.84-18.646 18.84h-164.065c-11.926-12.302-26.877-15.991-40.078-17.127v-141.341c12.074-2.16 21.204-6.876 27.761-14.342.719-.819 1.248-1.785 1.549-2.831l42.04-145.865 4.029 1.159c14.327 4.128 26.212 13.634 33.465 26.766s8.973 28.256 4.843 42.589l-13.377 46.479c-.642 2.231-.199 4.636 1.198 6.491 1.396 1.855 3.584 2.947 5.906 2.947h115.345c12.88 0 18.646 9.462 18.646 18.84s-5.766 18.84-18.646 18.84h-46.21zm-276.809-20.081h85.475v180.589h-85.475z"/></svg>