<svg height="512" viewBox="0 0 512 512" width="512" xmlns="http://www.w3.org/2000/svg"><g id="an"><g id="ao"><path d="m176.771 395.124c-9.794 0-18.914-4.392-25.019-12.049l-21.432-26.874-18.856-9.081-49.231 99.019c-2.468 4.965-2.19 10.855.736 15.565 2.919 4.7 8.06 7.558 13.591 7.558h.036l45.666-.103 27.481 36.471c3.039 4.033 7.782 6.372 12.776 6.371.49 0 .982-.022 1.475-.068 5.522-.511 10.386-3.844 12.854-8.809l49.948-100.462-15.652-7.538h-34.374z"/><path d="m449.766 446.138-49.231-99.019-18.856 9.081-21.432 26.875c-6.105 7.656-15.224 12.048-25.019 12.048h-34.374l-15.652 7.538 49.948 100.462c2.469 4.965 7.333 8.298 12.854 8.809.493.045.985.068 1.475.068 4.993 0 9.737-2.338 12.776-6.371l27.481-36.471 45.666.103h.036c5.531 0 10.672-2.857 13.591-7.558 2.926-4.71 3.204-10.6.736-15.565z"/><path d="m335.229 379.124c4.869 0 9.474-2.217 12.509-6.024l23.709-29.73 34.26-16.499c4.387-2.113 7.573-6.108 8.657-10.855l8.462-37.073 23.709-29.73c3.036-3.807 4.173-8.789 3.089-13.536l-8.461-37.072 8.461-37.073c1.083-4.748-.053-9.729-3.089-13.537l-23.709-29.729-8.462-37.073c-1.083-4.747-4.27-8.742-8.657-10.855l-34.26-16.499-23.709-29.73c-3.036-3.807-7.64-6.024-12.509-6.024h-38.026l-34.261-16.501c-4.388-2.112-9.497-2.112-13.885 0l-34.26 16.499h-38.026c-4.869 0-9.474 2.217-12.509 6.024l-23.709 29.73-34.26 16.499c-4.387 2.113-7.573 6.108-8.657 10.855l-8.462 37.073-23.709 29.729c-3.036 3.807-4.173 8.789-3.089 13.537l8.461 37.073-8.461 37.072c-1.083 4.747.053 9.729 3.089 13.536l23.709 29.73 8.462 37.073c1.083 4.747 4.27 8.742 8.657 10.855l34.26 16.499 23.709 29.73c3.036 3.807 7.64 6.024 12.509 6.024h38.026l34.26 16.499c2.194 1.056 4.568 1.584 6.942 1.584s4.749-.528 6.942-1.584l34.26-16.499h38.026zm-79.229-40.52c-77.196 0-140-62.804-140-140s62.804-140 140-140 140 62.804 140 140-62.804 140-140 140z"/><path d="m256 74.604c-68.374 0-124 55.626-124 124s55.626 124 124 124 124-55.626 124-124-55.626-124-124-124zm3.313 160.71c-3.106 3.106-7.203 4.687-11.317 4.687-3.521 0-7.055-1.157-9.991-3.506l-40-32 19.99-24.987 28.817 23.054 45.874-45.874 22.627 22.627-56 56z"/></g></g></svg>