<svg id="Layer_1" enable-background="new 0 0 512 512" viewBox="0 0 512 512" xmlns="http://www.w3.org/2000/svg"><path clip-rule="evenodd" d="m168.455 16h257.052v50.098c0 11.251 9.143 20.394 20.394 20.394h50.099v266.651c-18.352-28.988-50.7-48.238-87.547-48.238-27.367 0-52.25 10.621-70.762 27.961h-71.791v-33.656c0-1.599-.142-3.17-.416-4.7h167.588c4.418 0 8-3.582 8-8s-3.582-8-8-8h-177.43c-.867-.655-1.781-1.262-2.742-1.816l-93.233-53.828v-198.077c0-4.841 3.948-8.789 8.788-8.789zm239.998 304.906c-48.351 0-87.547 39.196-87.547 87.547s39.196 87.547 87.547 87.547 87.547-39.196 87.547-87.547-39.196-87.547-87.547-87.547zm-11.499 95.269 42.57-42.994c5.039-5.089 13.26-5.104 18.335-.057 5.073 5.045 5.09 13.243.056 18.323-17.262 17.422-34.408 34.959-51.75 52.302-5.07 5.07-13.294 5.07-18.364 0l-28.772-28.772c-5.07-5.07-5.07-13.294 0-18.364s13.294-5.07 18.364 0zm-269.004-187.372-36.517 21.083 116.95 67.521v53.177l-33.915 19.581v-53.177l-116.95-67.521-36.518 21.083c-3.18 1.836-5 4.988-5 8.66v123.496c0 3.672 1.82 6.824 5 8.66l106.95 61.747c3.18 1.836 6.82 1.836 10 0l106.95-61.747c3.18-1.836 5-4.988 5-8.66v-123.496c0-3.672-1.82-6.824-5-8.66l-106.95-61.747c-3.18-1.836-6.82-1.836-10 0zm313.558-212.041v49.336c0 2.42 1.974 4.394 4.394 4.394h49.336c-.426-.933-1.031-1.793-1.812-2.574l-49.344-49.344c-.782-.781-1.641-1.386-2.574-1.812zm-175.608 332.104v38.356h41.188c2.925-14.039 8.694-27.033 16.675-38.356zm0 54.356h39.137c-.086 1.733-.131 3.476-.131 5.23 0 15.524 3.423 30.247 9.545 43.464h-73.147l11.597-6.695c8.13-4.694 13-13.129 13-22.516v-19.483zm166.484-179.068h-209.102c-4.418 0-8 3.582-8 8s3.582 8 8 8h209.102c4.418 0 8-3.582 8-8s-3.582-8-8-8zm-25.434-60.002h-11.271v-113.03c0-3.305-2.695-6-6-6h-22.183c-3.305 0-6 2.695-6 6v113.03h-29.289v-77.153c0-3.305-2.695-6-6-6-7.395 0-14.789 0-22.183 0-3.305 0-6 2.696-6 6v77.153h-29.289v-42.795c0-3.305-2.695-6-6-6h-22.183c-3.305 0-6 2.695-6 6v42.795h-11.271c-4.418 0-8 3.582-8 8s3.582 8 8 8h183.669c4.418 0 8-3.582 8-8s-3.582-8-8-8z" fill-rule="evenodd"/></svg>