<svg id="Glyph" height="512" viewBox="0 0 64 64" width="512" xmlns="http://www.w3.org/2000/svg"><path d="m59.93889 29.95786a5.73476 5.73476 0 0 0 -4.89-4.80009h-15.29a1.0009 1.0009 0 0 1 -.94-1.33 31.42706 31.42706 0 0 0 1.32-4.57c1.43963-5.41749.80207-9.98018-4.02024-13.06a4.58426 4.58426 0 0 0 -6.99965 4.01023c.01412 2.20181.5198 5.74306-.38013 7.7798a55.92042 55.92042 0 0 1 -5.38 10.73l-1.09 1.17a6.1137 6.1137 0 0 1 1.1 3.54v20.79a6.32871 6.32871 0 0 1 -.93 3.29 8.14816 8.14816 0 0 0 3.76 1.01h23.45a5.53058 5.53058 0 0 0 5.46-4.13 5.14939 5.14939 0 0 0 -.66-3.77 5.11562 5.11562 0 0 0 2.72-2.71 5.17763 5.17763 0 0 0 -.27-4.50995 5.12353 5.12353 0 0 0 2.74-2.75 5.381 5.381 0 0 0 -1.34-5.76 5.75063 5.75063 0 0 0 1.64002-4.92999z"/><path d="m17.08891 29.13785h-12.09a1.003 1.003 0 0 0 -1 1v27.37a1.003 1.003 0 0 0 1 1h12.09a4.2726 4.2726 0 0 0 3.72-2.18 4.18222 4.18222 0 0 0 .56-2.11005v-20.79a4.29042 4.29042 0 0 0 -4.28-4.28995z"/><path d="m46.49888 12.99783a4.50681 4.50681 0 0 1 4.5 4.5 1.00011 1.00011 0 0 0 2 0 4.5068 4.5068 0 0 1 4.5-4.5 1.00011 1.00011 0 0 0 0-2 4.50681 4.50681 0 0 1 -4.5-4.5 1.00011 1.00011 0 0 0 -2 0 4.50681 4.50681 0 0 1 -4.5 4.5 1.00012 1.00012 0 0 0 0 2z"/><path d="m12.49888 12.99783a4.50681 4.50681 0 0 1 4.5 4.5 1.00011 1.00011 0 0 0 2 0 4.5068 4.5068 0 0 1 4.5-4.5 1.00011 1.00011 0 0 0 0-2 4.50681 4.50681 0 0 1 -4.5-4.5 1.00011 1.00011 0 0 0 -2 0 4.50681 4.50681 0 0 1 -4.5 4.5 1.00012 1.00012 0 0 0 0 2z"/></svg>